<?xml version="1.0" encoding="UTF-8" standalone="no"?>
<!-- Created with Inkscape (http://www.inkscape.org/) -->

<svg
   width="84.737228mm"
   height="98.072235mm"
   viewBox="0 0 84.737228 98.072235"
   version="1.1"
   id="svg285"
   xmlns="http://www.w3.org/2000/svg"
   xmlns:svg="http://www.w3.org/2000/svg">
  <defs
     id="defs282" />
  <style>
    @media (prefers-color-scheme: dark) {
      #g105 { fill: #ffffff }
    }
  </style>
  <g
     id="layer1"
     transform="translate(-0.12333101,-0.1090586)">
    <g
       transform="matrix(0.03527778,0,0,-0.03527778,-98.654453,216.36185)"
       fill="#000000"
       stroke="none"
       id="g105">
      <path
         d="m 2800,6125 c 0,-3 150,-263 333,-578 184,-314 456,-782 605,-1038 l 272,-467 v -256 -256 h -115 -115 v 263 262 l -81,140 c -44,77 -84,144 -89,149 -6,6 -9,-192 -7,-490 l 2,-499 293,-3 292,-2 v 367 366 l -31,56 c -26,46 -777,1338 -1074,1846 l -81,140 -102,3 c -56,1 -102,0 -102,-3 z"
         id="path61" />
      <path
         d="m 3539,5848 c 93,-156 232,-388 308,-515 l 140,-233 125,193 c 68,105 193,299 277,429 l 153,237 h 170 c 148,-1 169,-3 163,-17 -3,-8 -181,-298 -396,-644 l -390,-629 47,-85 c 26,-46 51,-83 56,-82 4,2 125,194 269,428 144,234 362,587 484,785 121,198 229,372 239,388 l 18,27 -382,-2 -383,-3 -191,-296 c -105,-162 -205,-317 -222,-344 l -32,-48 -207,347 -206,346 h -104 -104 z"
         id="path63" />
    </g>
  </g>
</svg>
